<?xml version="1.0" encoding="UTF-8"?>
<svg id="Layer_2" data-name="Layer 2" xmlns="http://www.w3.org/2000/svg" viewBox="0 0 15.73 7.09">
  <defs>
    <style>
      .cls-1 {
        fill: #f7941d;
      }
    </style>
  </defs>
  <g id="Layer_1-2" data-name="Layer 1">
    <path class="cls-1" d="m7.95,0c.05,0,.1.01.16.02.24.03.46.1.63.28.13.13.19.29.21.46.03.25-.02.49-.07.73-.11.48-.21.97-.32,1.45-.09.41-.18.82-.27,1.22-.1.45-.19.9-.29,1.34-.03.12-.1.2-.22.23-.05.02-.1.02-.16.03-.51,0-1.02,0-1.53,0-.01,0-.03,0-.05,0,.01-.06.02-.11.04-.16.12-.55.24-1.11.36-1.66.09-.42.18-.84.27-1.25.05-.24.1-.47.15-.71.02-.11.03-.22.01-.34-.03-.18-.15-.3-.33-.33-.31-.05-.57.09-.72.38-.07.13-.1.27-.13.4-.07.34-.15.68-.22,1.03-.15.69-.3,1.38-.45,2.06-.02.09-.04.19-.06.28-.04.18-.17.29-.35.29-.23,0-.47,0-.7,0-.28,0-.57,0-.85,0-.02,0-.03,0-.05,0,.01-.05.02-.1.03-.15.15-.68.29-1.35.44-2.03.12-.54.23-1.07.35-1.61.02-.11.04-.23.02-.35-.03-.18-.15-.29-.32-.32-.32-.05-.58.09-.73.39-.06.12-.09.26-.12.39-.1.44-.19.88-.29,1.32-.11.51-.22,1.02-.33,1.52-.04.17-.08.35-.11.52-.04.19-.17.3-.36.3-.21,0-.42,0-.62,0-.33,0-.65,0-.98,0,0,0,0,0,0,0,0-.01.01-.02.02-.04.02-.07.03-.13.04-.2.12-.55.24-1.1.36-1.65.12-.56.25-1.13.37-1.69.09-.43.19-.87.28-1.3.05-.22,0-.41-.19-.56-.03-.02-.06-.05-.08-.07-.02-.02-.03-.05-.02-.07,0-.01.03-.02.05-.02.67,0,1.35,0,2.02,0,.02,0,.04,0,.05,0,.07.01.1.05.1.12,0,.02,0,.05,0,.07-.02.11-.05.21-.07.32,0,.02-.01.05,0,.07,0,.02.02.04.04.04,0,0,.03-.01.04-.02.1-.12.21-.22.34-.31C3.76.17,4.21.04,4.69.01c.03,0,.05,0,.08-.01.06,0,.12,0,.18,0,.01,0,.02,0,.03,0,.05,0,.11,0,.16.02.19.03.37.08.54.19.2.13.33.32.4.55,0,.02.01.04.02.07.02-.03.04-.05.06-.08.19-.24.42-.42.69-.55.29-.14.6-.2.92-.21.01,0,.03,0,.04,0,.04,0,.08,0,.12,0Z"/>
    <path class="cls-1" d="m14.85,5.75h-.21c-.38,0-.75,0-1.13,0-.23,0-.41-.11-.52-.31-.29-.56-.58-1.12-.87-1.68,0,0,0-.01-.02-.03-.02.02-.05.04-.07.07-.43.42-.86.84-1.29,1.26-.39.38-.78.76-1.17,1.14-.29.28-.58.56-.86.85-.04.04-.08.02-.14.03.01-.02.02-.03.03-.04.72-1.02,1.43-2.04,2.15-3.06.28-.39.55-.79.83-1.18.02-.02.02-.04,0-.07-.39-.74-.78-1.49-1.17-2.23-.08-.15-.16-.3-.23-.45,0-.01-.01-.03-.03-.05.02,0,.04,0,.05,0,.44,0,.89,0,1.33,0,.17,0,.3.07.4.19.06.08.11.17.16.26.16.29.31.59.46.88,0,0,0,.02.02.03.01-.01.02-.03.03-.04.31-.43.61-.87.92-1.3.02-.02.03-.03.06-.03.67,0,1.33,0,2,0,.03,0,.05,0,.08,0,.06.01.08.05.05.1-.03.06-.08.11-.12.16-.33.33-.66.65-.99.97-.28.27-.55.55-.83.82-.18.17-.35.35-.53.52-.02.02-.02.04,0,.06.46.88.92,1.77,1.38,2.65.07.13.14.27.21.4,0,0,0,.02.02.04Z"/>
  </g>
</svg>